<?xml version="1.0" encoding="utf-8"?>
<svg viewBox="0 0 500 500" xmlns="http://www.w3.org/2000/svg">
  <defs/>
  <path d="M 500 250 A 250 250 0 0 1 250 500 A 250 250 0 0 1 0 250 A 250 250 0 0 1 250 0 A 250 250 0 0 1 500 250 Z" style="stroke: rgb(0, 0, 0); fill: rgb(39, 39, 39);"/>
  <path d="M 144.545 140 L 235.455 140 C 237.965 140 240 144.477 240 150 L 240 350 C 240 355.523 237.965 360 235.455 360 L 144.545 360 C 142.035 360 140 355.523 140 350 L 140 150 C 140 144.477 142.035 140 144.545 140 Z" style="stroke: rgb(0, 0, 0); fill: rgb(204, 204, 204);"/>
  <path d="M 264.545 140 L 355.455 140 C 357.965 140 360 144.477 360 150 L 360 350 C 360 355.523 357.965 360 355.455 360 L 264.545 360 C 262.035 360 260 355.523 260 350 L 260 150 C 260 144.477 262.035 140 264.545 140 Z" style="stroke: rgb(0, 0, 0); fill: rgb(204, 204, 204);"/>
</svg>